<mxfile host="app.diagrams.net" agent="Mozilla/5.0 (Windows NT 10.0; Win64; x64) AppleWebKit/537.36 (KHTML, like Gecko) Chrome/129.0.0.0 Safari/537.36" version="24.7.17">
  <diagram id="C5RBs43oDa-KdzZeNtuy" name="Page-1">
    <mxGraphModel dx="1434" dy="738" grid="1" gridSize="10" guides="1" tooltips="1" connect="1" arrows="1" fold="1" page="1" pageScale="1" pageWidth="827" pageHeight="1169" math="0" shadow="0">
      <root>
        <mxCell id="WIyWlLk6GJQsqaUBKTNV-0" />
        <mxCell id="WIyWlLk6GJQsqaUBKTNV-1" parent="WIyWlLk6GJQsqaUBKTNV-0" />
        <mxCell id="bN-U2qPbiVQ-y4dqBJc6-2" value="" style="edgeStyle=orthogonalEdgeStyle;rounded=0;orthogonalLoop=1;jettySize=auto;html=1;" parent="WIyWlLk6GJQsqaUBKTNV-1" source="bN-U2qPbiVQ-y4dqBJc6-0" target="bN-U2qPbiVQ-y4dqBJc6-1" edge="1">
          <mxGeometry relative="1" as="geometry" />
        </mxCell>
        <mxCell id="bN-U2qPbiVQ-y4dqBJc6-0" value="&lt;font style=&quot;font-size: 20px;&quot;&gt;for(int i = 0; i&amp;lt;=100;i++)&lt;/font&gt;&lt;div&gt;&lt;span style=&quot;font-size: 20px;&quot;&gt;std::cout&amp;lt;&amp;lt;i;&lt;/span&gt;&lt;/div&gt;" style="rounded=0;whiteSpace=wrap;html=1;" parent="WIyWlLk6GJQsqaUBKTNV-1" vertex="1">
          <mxGeometry x="210" y="50" width="260" height="80" as="geometry" />
        </mxCell>
        <mxCell id="bN-U2qPbiVQ-y4dqBJc6-4" value="" style="edgeStyle=orthogonalEdgeStyle;rounded=0;orthogonalLoop=1;jettySize=auto;html=1;" parent="WIyWlLk6GJQsqaUBKTNV-1" source="bN-U2qPbiVQ-y4dqBJc6-1" target="bN-U2qPbiVQ-y4dqBJc6-3" edge="1">
          <mxGeometry relative="1" as="geometry" />
        </mxCell>
        <mxCell id="bN-U2qPbiVQ-y4dqBJc6-1" value="i = 0&lt;font data-immersive-translate-loading-id=&quot;1&quot; lang=&quot;zh-CN&quot; translate=&quot;no&quot; class=&quot;notranslate immersive-translate-target-wrapper&quot;&gt;&amp;nbsp; &lt;font class=&quot;immersive-translate-loading-spinner notranslate&quot;&gt;&lt;/font&gt;&lt;/font&gt;" style="rounded=1;whiteSpace=wrap;html=1;" parent="WIyWlLk6GJQsqaUBKTNV-1" vertex="1">
          <mxGeometry x="290" y="180" width="100" height="40" as="geometry" />
        </mxCell>
        <mxCell id="fcXhu6L6UJ9HACw3cu2v-1" value="" style="edgeStyle=orthogonalEdgeStyle;rounded=0;orthogonalLoop=1;jettySize=auto;html=1;" parent="WIyWlLk6GJQsqaUBKTNV-1" source="bN-U2qPbiVQ-y4dqBJc6-3" target="fcXhu6L6UJ9HACw3cu2v-0" edge="1">
          <mxGeometry relative="1" as="geometry" />
        </mxCell>
        <mxCell id="fcXhu6L6UJ9HACw3cu2v-5" value="" style="edgeStyle=orthogonalEdgeStyle;rounded=0;orthogonalLoop=1;jettySize=auto;html=1;" parent="WIyWlLk6GJQsqaUBKTNV-1" source="bN-U2qPbiVQ-y4dqBJc6-3" target="fcXhu6L6UJ9HACw3cu2v-4" edge="1">
          <mxGeometry relative="1" as="geometry" />
        </mxCell>
        <mxCell id="bN-U2qPbiVQ-y4dqBJc6-3" value="if i&amp;lt;=100" style="rounded=1;whiteSpace=wrap;html=1;" parent="WIyWlLk6GJQsqaUBKTNV-1" vertex="1">
          <mxGeometry x="290" y="360" width="100" height="40" as="geometry" />
        </mxCell>
        <mxCell id="fcXhu6L6UJ9HACw3cu2v-3" value="" style="edgeStyle=orthogonalEdgeStyle;rounded=0;orthogonalLoop=1;jettySize=auto;html=1;" parent="WIyWlLk6GJQsqaUBKTNV-1" source="fcXhu6L6UJ9HACw3cu2v-0" target="fcXhu6L6UJ9HACw3cu2v-2" edge="1">
          <mxGeometry relative="1" as="geometry" />
        </mxCell>
        <mxCell id="fcXhu6L6UJ9HACw3cu2v-0" value="False" style="rhombus;whiteSpace=wrap;html=1;rounded=1;" parent="WIyWlLk6GJQsqaUBKTNV-1" vertex="1">
          <mxGeometry x="300" y="460" width="80" height="80" as="geometry" />
        </mxCell>
        <mxCell id="fcXhu6L6UJ9HACw3cu2v-2" value="break" style="shape=hexagon;perimeter=hexagonPerimeter2;whiteSpace=wrap;html=1;fixedSize=1;rounded=1;" parent="WIyWlLk6GJQsqaUBKTNV-1" vertex="1">
          <mxGeometry x="120" y="460" width="120" height="80" as="geometry" />
        </mxCell>
        <mxCell id="6vOGwyiXUZajv6BZvjdm-1" value="" style="edgeStyle=orthogonalEdgeStyle;rounded=0;orthogonalLoop=1;jettySize=auto;html=1;" edge="1" parent="WIyWlLk6GJQsqaUBKTNV-1" source="fcXhu6L6UJ9HACw3cu2v-4" target="6vOGwyiXUZajv6BZvjdm-0">
          <mxGeometry relative="1" as="geometry" />
        </mxCell>
        <mxCell id="fcXhu6L6UJ9HACw3cu2v-4" value="True" style="ellipse;whiteSpace=wrap;html=1;rounded=1;" parent="WIyWlLk6GJQsqaUBKTNV-1" vertex="1">
          <mxGeometry x="450" y="340" width="80" height="80" as="geometry" />
        </mxCell>
        <mxCell id="6vOGwyiXUZajv6BZvjdm-3" value="" style="edgeStyle=orthogonalEdgeStyle;rounded=0;orthogonalLoop=1;jettySize=auto;html=1;" edge="1" parent="WIyWlLk6GJQsqaUBKTNV-1" source="6vOGwyiXUZajv6BZvjdm-0" target="6vOGwyiXUZajv6BZvjdm-2">
          <mxGeometry relative="1" as="geometry" />
        </mxCell>
        <mxCell id="6vOGwyiXUZajv6BZvjdm-0" value="std::cout&amp;lt;&amp;lt;i;" style="whiteSpace=wrap;html=1;rounded=1;" vertex="1" parent="WIyWlLk6GJQsqaUBKTNV-1">
          <mxGeometry x="590" y="350" width="120" height="60" as="geometry" />
        </mxCell>
        <mxCell id="6vOGwyiXUZajv6BZvjdm-5" style="edgeStyle=orthogonalEdgeStyle;rounded=0;orthogonalLoop=1;jettySize=auto;html=1;entryX=0.75;entryY=0;entryDx=0;entryDy=0;" edge="1" parent="WIyWlLk6GJQsqaUBKTNV-1" source="6vOGwyiXUZajv6BZvjdm-2" target="bN-U2qPbiVQ-y4dqBJc6-3">
          <mxGeometry relative="1" as="geometry" />
        </mxCell>
        <mxCell id="6vOGwyiXUZajv6BZvjdm-2" value="i++" style="whiteSpace=wrap;html=1;rounded=1;" vertex="1" parent="WIyWlLk6GJQsqaUBKTNV-1">
          <mxGeometry x="590" y="210" width="120" height="60" as="geometry" />
        </mxCell>
      </root>
    </mxGraphModel>
  </diagram>
</mxfile>
